<?xml version="1.0" encoding="UTF-8" standalone="no"?><!DOCTYPE svg PUBLIC "-//W3C//DTD SVG 1.1//EN" "http://www.w3.org/Graphics/SVG/1.1/DTD/svg11.dtd"><svg width="100%" height="100%" viewBox="0 0 596 444" version="1.1" xmlns="http://www.w3.org/2000/svg" xmlns:xlink="http://www.w3.org/1999/xlink" xml:space="preserve" xmlns:serif="http://www.serif.com/" style="fill-rule:evenodd;clip-rule:evenodd;stroke-linecap:round;stroke-linejoin:round;stroke-miterlimit:1.5;"><rect id="Organization-Chart" serif:id="Organization Chart" x="0" y="0.03" width="595.276" height="443.761" style="fill:none;"/><clipPath id="_clip1"><rect x="0" y="0.03" width="595.276" height="443.761"/></clipPath><g clip-path="url(#_clip1)"><rect x="0" y="0.03" width="595.276" height="443.761" style="fill:#fff;"/><g><path d="M504.396,213.714l0,-97.998l-379.623,0l0,73.167l-8.046,0l0,23.944" style="fill:none;stroke:#a55763;stroke-width:3px;"/><path d="M224.141,89.192l15.768,0" style="fill:none;stroke:#a55763;stroke-width:3px;"/><g><path d="M223.4,79.261c0,-4.513 -3.658,-8.172 -8.171,-8.172l-121.89,0c-4.513,0 -8.171,3.659 -8.171,8.172l0,19.863c0,4.513 3.658,8.172 8.171,8.172l121.89,0c4.513,0 8.171,-3.659 8.171,-8.172l0,-19.863Z" style="fill:#c5d7ed;"/><clipPath id="_clip2"><path d="M223.4,79.261c0,-4.513 -3.658,-8.172 -8.171,-8.172l-121.89,0c-4.513,0 -8.171,3.659 -8.171,8.172l0,19.863c0,4.513 3.658,8.172 8.171,8.172l121.89,0c4.513,0 8.171,-3.659 8.171,-8.172l0,-19.863Z"/></clipPath><g clip-path="url(#_clip2)"><rect x="74.641" y="92.15" width="153.049" height="17.584" style="fill:#dd9392;"/></g><text x="121.654px" y="85.505px" style="font-family:'Calibri-Bold', 'Calibri', sans-serif;font-weight:700;font-size:9.6px;">Y<tspan x="126.958px 133.624px 137.941px 140.663px 149.587px 154.568px 159.623px 165.371px 168.093px 170.401px 177.127px 181.859px " y="85.505px 85.505px 85.505px 85.505px 85.505px 85.505px 85.505px 85.505px 85.505px 85.505px 85.505px 85.505px ">ULIMETRI NST</tspan></text><text x="116.354px" y="102.367px" style="font-family:'Calibri', sans-serif;font-size:9.6px;">D<tspan x="122.635px 125.208px 130.751px 135.737px 141.041px 146.017px 152.567px 158.111px 160.42px 166.97px 171.196px 177.103px 185.833px " y="102.367px 102.367px 102.367px 102.367px 102.367px 102.367px 102.367px 102.367px 102.367px 102.367px 102.367px 102.367px 102.367px ">IREKTUR UTAMA</tspan></text></g><path d="M309.871,93.55l0,104.173" style="fill:none;stroke:#a55763;stroke-width:3px;"/><g><path d="M574.099,215.667c0,-4.513 -3.659,-8.171 -8.172,-8.171l-121.89,0c-4.513,0 -8.171,3.658 -8.171,8.171l0,19.864c0,4.513 3.658,8.171 8.171,8.171l121.89,0c4.513,0 8.172,-3.658 8.172,-8.171l0,-19.864Z" style="fill:#d6e4bd;"/><clipPath id="_clip3"><path d="M574.099,215.667c0,-4.513 -3.659,-8.171 -8.172,-8.171l-121.89,0c-4.513,0 -8.171,3.658 -8.171,8.171l0,19.864c0,4.513 3.658,8.171 8.171,8.171l121.89,0c4.513,0 8.172,-3.658 8.172,-8.171l0,-19.864Z"/></clipPath><g clip-path="url(#_clip3)"><rect x="425.34" y="228.556" width="153.049" height="17.584" style="fill:#dd9392;"/></g><text x="495.725px" y="221.911px" style="font-family:'Calibri-Bold', 'Calibri', sans-serif;font-weight:700;font-size:9.6px;">A<tspan x="501.912px 505.48px 511.517px " y="221.911px 221.911px 221.911px ">LVI</tspan></text><text x="471.855px" y="238.773px" style="font-family:'Calibri', sans-serif;font-size:9.6px;">S<tspan x="476.547px 483.098px 488.372px 493.647px 500.407px 505.857px 510.832px 513.141px 518.116px 522.998px 528.906px " y="238.773px 238.773px 238.773px 238.773px 238.773px 238.773px 238.773px 238.773px 238.773px 238.773px 238.773px ">UPPORT TEAM</tspan></text></g><g><path d="M186.854,215.667c0,-4.513 -3.658,-8.171 -8.171,-8.171l-121.89,0c-4.513,0 -8.172,3.658 -8.172,8.171l0,19.864c0,4.513 3.659,8.171 8.172,8.171l121.89,0c4.513,0 8.171,-3.658 8.171,-8.171l0,-19.864Z" style="fill:#d6e4bd;"/><clipPath id="_clip4"><path d="M186.854,215.667c0,-4.513 -3.658,-8.171 -8.171,-8.171l-121.89,0c-4.513,0 -8.172,3.658 -8.172,8.171l0,19.864c0,4.513 3.659,8.171 8.172,8.171l121.89,0c4.513,0 8.171,-3.658 8.171,-8.171l0,-19.864Z"/></clipPath><g clip-path="url(#_clip4)"><rect x="38.095" y="228.556" width="153.049" height="17.584" style="fill:#dd9392;"/></g><text x="83.652px" y="221.911px" style="font-family:'Calibri-Bold', 'Calibri', sans-serif;font-weight:700;font-size:9.6px;">A<tspan x="89.721px 96.227px 102.893px 109.618px 116.124px 118.432px 123.258px 128.239px 134.45px 139.854px 145.158px " y="221.911px 221.911px 221.911px 221.911px 221.911px 221.911px 221.911px 221.911px 221.911px 221.911px 221.911px ">GUNG SEDAYU</tspan></text><text x="74.712px" y="238.773px" style="font-family:'Calibri', sans-serif;font-size:9.6px;">M<tspan x="83.442px 88.599px 93.575px 98.56px 104.104px 106.676px 112.584px 116.877px 119.185px 123.128px 125.437px 132.197px 134.769px 139.062px 147.791px 153.699px " y="238.773px 238.773px 238.773px 238.773px 238.773px 238.773px 238.773px 238.773px 238.773px 238.773px 238.773px 238.773px 238.773px 238.773px 238.773px 238.773px ">ATERIAL / OILMAN</tspan></text></g><g><path d="M378.47,203.885c0,-4.513 -3.659,-8.171 -8.172,-8.171l-121.889,0c-4.513,0 -8.172,3.658 -8.172,8.171l0,19.864c0,4.513 3.659,8.171 8.172,8.171l121.889,0c4.513,0 8.172,-3.658 8.172,-8.171l0,-19.864Z" style="fill:#d6e4bd;"/><clipPath id="_clip5"><path d="M378.47,203.885c0,-4.513 -3.659,-8.171 -8.172,-8.171l-121.889,0c-4.513,0 -8.172,3.658 -8.172,8.171l0,19.864c0,4.513 3.659,8.171 8.172,8.171l121.889,0c4.513,0 8.172,-3.658 8.172,-8.171l0,-19.864Z"/></clipPath><g clip-path="url(#_clip5)"><rect x="229.711" y="216.774" width="153.049" height="17.584" style="fill:#dd9392;"/></g><text x="269.807px" y="210.129px" style="font-family:'Calibri-Bold', 'Calibri', sans-serif;font-weight:700;font-size:9.6px;">A<tspan x="275.994px 282.435px 291.359px 297.546px 303.982px 306.29px 312.038px 314.76px 319.575px 325.762px 330.079px 332.388px 339.113px 343.845px " y="210.129px 210.129px 210.129px 210.129px 210.129px 210.129px 210.129px 210.129px 210.129px 210.129px 210.129px 210.129px 210.129px 210.129px ">HMAD RIZAL NST</tspan></text><text x="287.099px" y="226.991px" style="font-family:'Calibri', sans-serif;font-size:9.6px;">M<tspan x="295.828px 301.736px 308.327px 314.164px 320.605px 325.591px " y="226.991px 226.991px 226.991px 226.991px 226.991px 226.991px ">ANAGER</tspan></text></g><g><path d="M378.47,137.6c0,-4.513 -3.659,-8.172 -8.172,-8.172l-121.889,0c-4.513,0 -8.172,3.659 -8.172,8.172l0,19.864c0,4.513 3.659,8.171 8.172,8.171l121.889,0c4.513,0 8.172,-3.658 8.172,-8.171l0,-19.864Z" style="fill:#d6e4bd;"/><clipPath id="_clip6"><path d="M378.47,137.6c0,-4.513 -3.659,-8.172 -8.172,-8.172l-121.889,0c-4.513,0 -8.172,3.659 -8.172,8.172l0,19.864c0,4.513 3.659,8.171 8.172,8.171l121.889,0c4.513,0 8.172,-3.658 8.172,-8.171l0,-19.864Z"/></clipPath><g clip-path="url(#_clip6)"><rect x="229.711" y="150.489" width="153.049" height="17.584" style="fill:#dd9392;"/></g><text x="279.733px" y="143.844px" style="font-family:'Calibri-Bold', 'Calibri', sans-serif;font-weight:700;font-size:9.6px;">A<tspan x="285.92px 290.237px 296.673px 299.395px 301.703px 308.429px 314.616px 319.442px 326.346px 332.787px " y="143.844px 143.844px 143.844px 143.844px 143.844px 143.844px 143.844px 143.844px 143.844px 143.844px ">LDI NASOHA</tspan></text><text x="287.099px" y="160.706px" style="font-family:'Calibri', sans-serif;font-size:9.6px;">M<tspan x="295.828px 301.736px 308.327px 314.164px 320.605px 325.591px " y="160.706px 160.706px 160.706px 160.706px 160.706px 160.706px ">ANAGER</tspan></text></g><path d="M125.366,188.648l379.03,0" style="fill:none;stroke:#a55763;stroke-width:3px;"/><g><path d="M378.47,79.261c0,-4.513 -3.659,-8.172 -8.172,-8.172l-121.889,0c-4.513,0 -8.172,3.659 -8.172,8.172l0,19.863c0,4.513 3.659,8.172 8.172,8.172l121.889,0c4.513,0 8.172,-3.659 8.172,-8.172l0,-19.863Z" style="fill:#c5d7ed;"/><clipPath id="_clip7"><path d="M378.47,79.261c0,-4.513 -3.659,-8.172 -8.172,-8.172l-121.889,0c-4.513,0 -8.172,3.659 -8.172,8.172l0,19.863c0,4.513 3.659,8.172 8.172,8.172l121.889,0c4.513,0 8.172,-3.659 8.172,-8.172l0,-19.863Z"/></clipPath><g clip-path="url(#_clip7)"><rect x="229.711" y="92.15" width="153.049" height="17.584" style="fill:#dd9392;"/></g><text x="269.953px" y="85.505px" style="font-family:'Calibri-Bold', 'Calibri', sans-serif;font-weight:700;font-size:9.6px;">D<tspan x="276.39px 279.112px 286.016px 290.334px 296.521px 298.829px 307.753px 313.94px 320.381px 326.568px 332.222px 337.048px 342.028px " y="85.505px 85.505px 85.505px 85.505px 85.505px 85.505px 85.505px 85.505px 85.505px 85.505px 85.505px 85.505px 85.505px ">IOLA MAHARSEN</tspan></text><g transform="matrix(0.405543,0,0,0.444385,38.366,-533.109)"><g transform="matrix(1.06355,0,0,1,-24.7751,0)"><text x="389.835px" y="1298.22px" style="font-family:'BaskOldFace', 'Baskerville Old Face', serif;font-size:40px;stroke:#000;stroke-width:1.14px;stroke-linecap:butt;stroke-miterlimit:2;">ORGANIZATION CHART</text></g><rect x="389.835" y="1302.62" width="497.647" height="1.758"/></g><text x="288.238px" y="102.367px" style="font-family:'Calibri', sans-serif;font-size:9.6px;">D<tspan x="294.519px 297.092px 302.636px 307.621px 312.926px 317.901px 324.452px " y="102.367px 102.367px 102.367px 102.367px 102.367px 102.367px 102.367px ">IREKTUR</tspan></text></g><path d="M87.034,283.018l372.268,0" style="fill:none;stroke:#a55763;stroke-width:3px;"/><path d="M306.112,228.367l0,80.98" style="fill:none;stroke:#a55763;stroke-width:3px;"/><path d="M306.112,334.455l0,42.808" style="fill:none;stroke:#a55763;stroke-width:3px;"/><path d="M306.112,332.799l0,44.464" style="fill:none;stroke:#a55763;stroke-width:3px;"/><path d="M153.182,283.018l0,26.329" style="fill:none;stroke:#a55763;stroke-width:3px;"/><path d="M153.182,334.455l0,42.808" style="fill:none;stroke:#a55763;stroke-width:3px;"/><path d="M153.182,332.799l0,44.464" style="fill:none;stroke:#a55763;stroke-width:3px;"/><path d="M388.881,283.018l0,26.329" style="fill:none;stroke:#a55763;stroke-width:3px;"/><path d="M224.67,283.018l0,26.329" style="fill:none;stroke:#a55763;stroke-width:3px;"/><path d="M224.67,334.455l0,42.808" style="fill:none;stroke:#a55763;stroke-width:3px;"/><path d="M224.67,332.799l0,44.464" style="fill:none;stroke:#a55763;stroke-width:3px;"/><path d="M459.302,283.018l0,26.329" style="fill:none;stroke:#a55763;stroke-width:3px;"/><path d="M87.034,283.018l0,26.329" style="fill:none;stroke:#a55763;stroke-width:3px;"/><path d="M87.034,332.799l0,44.464" style="fill:none;stroke:#a55763;stroke-width:3px;"/><g><path d="M120.752,311.26c0,-2.168 -0.861,-4.246 -2.394,-5.778c-1.532,-1.533 -3.61,-2.394 -5.778,-2.394l-51.092,0c-2.168,0 -4.246,0.861 -5.779,2.394c-1.532,1.532 -2.393,3.61 -2.393,5.778l0,19.864c0,2.167 0.861,4.245 2.393,5.778c1.533,1.532 3.611,2.393 5.779,2.393l51.092,0c2.168,0 4.246,-0.861 5.778,-2.393c1.533,-1.533 2.394,-3.611 2.394,-5.778l0,-19.864Z" style="fill:#d6e4bd;"/><clipPath id="_clip8"><path d="M120.752,311.26c0,-2.168 -0.861,-4.246 -2.394,-5.778c-1.532,-1.533 -3.61,-2.394 -5.778,-2.394l-51.092,0c-2.168,0 -4.246,0.861 -5.779,2.394c-1.532,1.532 -2.393,3.61 -2.393,5.778l0,19.864c0,2.167 0.861,4.245 2.393,5.778c1.533,1.532 3.611,2.393 5.779,2.393l51.092,0c2.168,0 4.246,-0.861 5.778,-2.393c1.533,-1.533 2.394,-3.611 2.394,-5.778l0,-19.864Z"/></clipPath><g clip-path="url(#_clip8)"><rect x="48.181" y="324.149" width="74.664" height="17.584" style="fill:#dd9392;"/></g><path d="M120.752,311.26c0,-2.168 -0.861,-4.246 -2.394,-5.778c-1.532,-1.533 -3.61,-2.394 -5.778,-2.394l-51.092,0c-2.168,0 -4.246,0.861 -5.779,2.394c-1.532,1.532 -2.393,3.61 -2.393,5.778l0,19.864c0,2.167 0.861,4.245 2.393,5.778c1.533,1.532 3.611,2.393 5.779,2.393l51.092,0c2.168,0 4.246,-0.861 5.778,-2.393c1.533,-1.533 2.394,-3.611 2.394,-5.778l0,-19.864Z" style="fill:#d6e4bd;"/><clipPath id="_clip9"><path d="M120.752,311.26c0,-2.168 -0.861,-4.246 -2.394,-5.778c-1.532,-1.533 -3.61,-2.394 -5.778,-2.394l-51.092,0c-2.168,0 -4.246,0.861 -5.779,2.394c-1.532,1.532 -2.393,3.61 -2.393,5.778l0,19.864c0,2.167 0.861,4.245 2.393,5.778c1.533,1.532 3.611,2.393 5.779,2.393l51.092,0c2.168,0 4.246,-0.861 5.778,-2.393c1.533,-1.533 2.394,-3.611 2.394,-5.778l0,-19.864Z"/></clipPath><g clip-path="url(#_clip9)"><rect x="48.181" y="324.149" width="74.664" height="17.584" style="fill:#dd9392;"/></g><text x="64.614px" y="334.366px" style="font-family:'Calibri', sans-serif;font-size:9.6px;">O<tspan x="71.375px 76.649px 81.635px 87.178px 92.336px 97.04px 103.8px " y="334.366px 334.366px 334.366px 334.366px 334.366px 334.366px 334.366px ">PERATOR</tspan></text></g><g><path d="M116.057,378.897c0,-2.167 -0.861,-4.246 -2.393,-5.778c-1.533,-1.533 -3.611,-2.394 -5.778,-2.394l-51.093,0c-2.167,0 -4.246,0.861 -5.778,2.394c-1.533,1.532 -2.394,3.611 -2.394,5.778l0,19.864c0,2.167 0.861,4.245 2.394,5.778c1.532,1.532 3.611,2.393 5.778,2.393l51.093,0c2.167,0 4.245,-0.861 5.778,-2.393c1.532,-1.533 2.393,-3.611 2.393,-5.778l0,-19.864Z" style="fill:#d6e4bd;"/><clipPath id="_clip10"><path d="M116.057,378.897c0,-2.167 -0.861,-4.246 -2.393,-5.778c-1.533,-1.533 -3.611,-2.394 -5.778,-2.394l-51.093,0c-2.167,0 -4.246,0.861 -5.778,2.394c-1.533,1.532 -2.394,3.611 -2.394,5.778l0,19.864c0,2.167 0.861,4.245 2.394,5.778c1.532,1.532 3.611,2.393 5.778,2.393l51.093,0c2.167,0 4.245,-0.861 5.778,-2.393c1.532,-1.533 2.393,-3.611 2.393,-5.778l0,-19.864Z"/></clipPath><g clip-path="url(#_clip10)"><rect x="43.486" y="391.786" width="74.664" height="17.584" style="fill:#dd9392;"/></g><path d="M116.057,378.897c0,-2.167 -0.861,-4.246 -2.393,-5.778c-1.533,-1.533 -3.611,-2.394 -5.778,-2.394l-51.093,0c-2.167,0 -4.246,0.861 -5.778,2.394c-1.533,1.532 -2.394,3.611 -2.394,5.778l0,19.864c0,2.167 0.861,4.245 2.394,5.778c1.532,1.532 3.611,2.393 5.778,2.393l51.093,0c2.167,0 4.245,-0.861 5.778,-2.393c1.532,-1.533 2.393,-3.611 2.393,-5.778l0,-19.864Z" style="fill:#d6e4bd;"/><clipPath id="_clip11"><path d="M116.057,378.897c0,-2.167 -0.861,-4.246 -2.393,-5.778c-1.533,-1.533 -3.611,-2.394 -5.778,-2.394l-51.093,0c-2.167,0 -4.246,0.861 -5.778,2.394c-1.533,1.532 -2.394,3.611 -2.394,5.778l0,19.864c0,2.167 0.861,4.245 2.394,5.778c1.532,1.532 3.611,2.393 5.778,2.393l51.093,0c2.167,0 4.245,-0.861 5.778,-2.393c1.532,-1.533 2.393,-3.611 2.393,-5.778l0,-19.864Z"/></clipPath><g clip-path="url(#_clip11)"><rect x="43.486" y="391.786" width="74.664" height="17.584" style="fill:#dd9392;"/></g><text x="66.563px" y="402.003px" style="font-family:'Calibri', sans-serif;font-size:9.6px;">H<tspan x="72.924px 77.91px 82.202px 87.477px 92.462px " y="402.003px 402.003px 402.003px 402.003px 402.003px ">ELPER</tspan></text></g><path d="M182.76,311.26c0,-2.168 -0.861,-4.246 -2.394,-5.778c-1.532,-1.533 -3.611,-2.394 -5.778,-2.394l-42.813,0c-2.167,0 -4.246,0.861 -5.778,2.394c-1.533,1.532 -2.393,3.61 -2.393,5.778l0,19.864c0,2.167 0.86,4.245 2.393,5.778c1.532,1.532 3.611,2.393 5.778,2.393l42.813,0c2.167,0 4.246,-0.861 5.778,-2.393c1.533,-1.533 2.394,-3.611 2.394,-5.778l0,-19.864Z" style="fill:#d6e4bd;"/><clipPath id="_clip12"><path d="M182.76,311.26c0,-2.168 -0.861,-4.246 -2.394,-5.778c-1.532,-1.533 -3.611,-2.394 -5.778,-2.394l-42.813,0c-2.167,0 -4.246,0.861 -5.778,2.394c-1.533,1.532 -2.393,3.61 -2.393,5.778l0,19.864c0,2.167 0.86,4.245 2.393,5.778c1.532,1.532 3.611,2.393 5.778,2.393l42.813,0c2.167,0 4.246,-0.861 5.778,-2.393c1.533,-1.533 2.394,-3.611 2.394,-5.778l0,-19.864Z"/></clipPath><g clip-path="url(#_clip12)"><rect x="119.099" y="324.149" width="65.497" height="17.584" style="fill:#dd9392;"/></g><path d="M182.76,378.897c0,-2.167 -0.861,-4.246 -2.394,-5.778c-1.532,-1.533 -3.611,-2.394 -5.778,-2.394l-42.813,0c-2.167,0 -4.246,0.861 -5.778,2.394c-1.533,1.532 -2.393,3.611 -2.393,5.778l0,19.864c0,2.167 0.86,4.245 2.393,5.778c1.532,1.532 3.611,2.393 5.778,2.393l42.813,0c2.167,0 4.246,-0.861 5.778,-2.393c1.533,-1.533 2.394,-3.611 2.394,-5.778l0,-19.864Z" style="fill:#d6e4bd;"/><clipPath id="_clip13"><path d="M182.76,378.897c0,-2.167 -0.861,-4.246 -2.394,-5.778c-1.532,-1.533 -3.611,-2.394 -5.778,-2.394l-42.813,0c-2.167,0 -4.246,0.861 -5.778,2.394c-1.533,1.532 -2.393,3.611 -2.393,5.778l0,19.864c0,2.167 0.86,4.245 2.393,5.778c1.532,1.532 3.611,2.393 5.778,2.393l42.813,0c2.167,0 4.246,-0.861 5.778,-2.393c1.533,-1.533 2.394,-3.611 2.394,-5.778l0,-19.864Z"/></clipPath><g clip-path="url(#_clip13)"><rect x="119.099" y="391.786" width="65.497" height="17.584" style="fill:#dd9392;"/></g><path d="M265.293,311.26c0,-2.168 -0.861,-4.246 -2.394,-5.778c-1.532,-1.533 -3.61,-2.394 -5.778,-2.394l-64.902,0c-2.167,0 -4.245,0.861 -5.778,2.394c-1.532,1.532 -2.393,3.61 -2.393,5.778l0,19.864c0,2.167 0.861,4.245 2.393,5.778c1.533,1.532 3.611,2.393 5.778,2.393l64.902,0c2.168,0 4.246,-0.861 5.778,-2.393c1.533,-1.533 2.394,-3.611 2.394,-5.778l0,-19.864Z" style="fill:#d6e4bd;"/><clipPath id="_clip14"><path d="M265.293,311.26c0,-2.168 -0.861,-4.246 -2.394,-5.778c-1.532,-1.533 -3.61,-2.394 -5.778,-2.394l-64.902,0c-2.167,0 -4.245,0.861 -5.778,2.394c-1.532,1.532 -2.393,3.61 -2.393,5.778l0,19.864c0,2.167 0.861,4.245 2.393,5.778c1.533,1.532 3.611,2.393 5.778,2.393l64.902,0c2.168,0 4.246,-0.861 5.778,-2.393c1.533,-1.533 2.394,-3.611 2.394,-5.778l0,-19.864Z"/></clipPath><g clip-path="url(#_clip14)"><rect x="177.861" y="324.149" width="89.953" height="17.584" style="fill:#dd9392;"/></g><path d="M265.293,378.897c0,-2.167 -0.861,-4.246 -2.394,-5.778c-1.532,-1.533 -3.61,-2.394 -5.778,-2.394l-64.902,0c-2.167,0 -4.245,0.861 -5.778,2.394c-1.532,1.532 -2.393,3.611 -2.393,5.778l0,19.864c0,2.167 0.861,4.245 2.393,5.778c1.533,1.532 3.611,2.393 5.778,2.393l64.902,0c2.168,0 4.246,-0.861 5.778,-2.393c1.533,-1.533 2.394,-3.611 2.394,-5.778l0,-19.864Z" style="fill:#d6e4bd;"/><clipPath id="_clip15"><path d="M265.293,378.897c0,-2.167 -0.861,-4.246 -2.394,-5.778c-1.532,-1.533 -3.61,-2.394 -5.778,-2.394l-64.902,0c-2.167,0 -4.245,0.861 -5.778,2.394c-1.532,1.532 -2.393,3.611 -2.393,5.778l0,19.864c0,2.167 0.861,4.245 2.393,5.778c1.533,1.532 3.611,2.393 5.778,2.393l64.902,0c2.168,0 4.246,-0.861 5.778,-2.393c1.533,-1.533 2.394,-3.611 2.394,-5.778l0,-19.864Z"/></clipPath><g clip-path="url(#_clip15)"><rect x="177.861" y="391.786" width="89.953" height="17.584" style="fill:#dd9392;"/></g><path d="M346.755,311.26c0,-2.168 -0.86,-4.246 -2.393,-5.778c-1.532,-1.533 -3.611,-2.394 -5.778,-2.394l-63.209,0c-2.167,0 -4.245,0.861 -5.778,2.394c-1.532,1.532 -2.393,3.61 -2.393,5.778l0,19.864c0,2.167 0.861,4.245 2.393,5.778c1.533,1.532 3.611,2.393 5.778,2.393l63.209,0c2.167,0 4.246,-0.861 5.778,-2.393c1.533,-1.533 2.393,-3.611 2.393,-5.778l0,-19.864Z" style="fill:#d6e4bd;"/><clipPath id="_clip16"><path d="M346.755,311.26c0,-2.168 -0.86,-4.246 -2.393,-5.778c-1.532,-1.533 -3.611,-2.394 -5.778,-2.394l-63.209,0c-2.167,0 -4.245,0.861 -5.778,2.394c-1.532,1.532 -2.393,3.61 -2.393,5.778l0,19.864c0,2.167 0.861,4.245 2.393,5.778c1.533,1.532 3.611,2.393 5.778,2.393l63.209,0c2.167,0 4.246,-0.861 5.778,-2.393c1.533,-1.533 2.393,-3.611 2.393,-5.778l0,-19.864Z"/></clipPath><g clip-path="url(#_clip16)"><rect x="261.146" y="324.149" width="88.078" height="17.584" style="fill:#dd9392;"/></g><path d="M346.755,378.897c0,-2.167 -0.86,-4.246 -2.393,-5.778c-1.532,-1.533 -3.611,-2.394 -5.778,-2.394l-63.209,0c-2.167,0 -4.245,0.861 -5.778,2.394c-1.532,1.532 -2.393,3.611 -2.393,5.778l0,19.864c0,2.167 0.861,4.245 2.393,5.778c1.533,1.532 3.611,2.393 5.778,2.393l63.209,0c2.167,0 4.246,-0.861 5.778,-2.393c1.533,-1.533 2.393,-3.611 2.393,-5.778l0,-19.864Z" style="fill:#d6e4bd;"/><clipPath id="_clip17"><path d="M346.755,378.897c0,-2.167 -0.86,-4.246 -2.393,-5.778c-1.532,-1.533 -3.611,-2.394 -5.778,-2.394l-63.209,0c-2.167,0 -4.245,0.861 -5.778,2.394c-1.532,1.532 -2.393,3.611 -2.393,5.778l0,19.864c0,2.167 0.861,4.245 2.393,5.778c1.533,1.532 3.611,2.393 5.778,2.393l63.209,0c2.167,0 4.246,-0.861 5.778,-2.393c1.533,-1.533 2.393,-3.611 2.393,-5.778l0,-19.864Z"/></clipPath><g clip-path="url(#_clip17)"><rect x="261.146" y="391.786" width="88.078" height="17.584" style="fill:#dd9392;"/></g><g><path d="M422.599,311.26c0,-2.168 -0.861,-4.246 -2.394,-5.778c-1.532,-1.533 -3.611,-2.394 -5.778,-2.394l-51.093,0c-2.167,0 -4.245,0.861 -5.778,2.394c-1.532,1.532 -2.393,3.61 -2.393,5.778l0,19.864c0,2.167 0.861,4.245 2.393,5.778c1.533,1.532 3.611,2.393 5.778,2.393l51.093,0c2.167,0 4.246,-0.861 5.778,-2.393c1.533,-1.533 2.394,-3.611 2.394,-5.778l0,-19.864Z" style="fill:#d6e4bd;"/><clipPath id="_clip18"><path d="M422.599,311.26c0,-2.168 -0.861,-4.246 -2.394,-5.778c-1.532,-1.533 -3.611,-2.394 -5.778,-2.394l-51.093,0c-2.167,0 -4.245,0.861 -5.778,2.394c-1.532,1.532 -2.393,3.61 -2.393,5.778l0,19.864c0,2.167 0.861,4.245 2.393,5.778c1.533,1.532 3.611,2.393 5.778,2.393l51.093,0c2.167,0 4.246,-0.861 5.778,-2.393c1.533,-1.533 2.394,-3.611 2.394,-5.778l0,-19.864Z"/></clipPath><g clip-path="url(#_clip18)"><rect x="350.028" y="324.149" width="74.664" height="17.584" style="fill:#dd9392;"/></g><text x="366.461px" y="334.366px" style="font-family:'Calibri', sans-serif;font-size:9.6px;">O<tspan x="373.222px 378.496px 383.481px 389.025px 394.183px 398.887px 405.647px " y="334.366px 334.366px 334.366px 334.366px 334.366px 334.366px 334.366px ">PERATOR</tspan></text></g><g><path d="M493.02,311.26c0,-2.168 -0.861,-4.246 -2.393,-5.778c-1.533,-1.533 -3.611,-2.394 -5.778,-2.394l-51.093,0c-2.167,0 -4.246,0.861 -5.778,2.394c-1.533,1.532 -2.393,3.61 -2.393,5.778l0,19.864c0,2.167 0.86,4.245 2.393,5.778c1.532,1.532 3.611,2.393 5.778,2.393l51.093,0c2.167,0 4.245,-0.861 5.778,-2.393c1.532,-1.533 2.393,-3.611 2.393,-5.778l0,-19.864Z" style="fill:#d6e4bd;"/><clipPath id="_clip19"><path d="M493.02,311.26c0,-2.168 -0.861,-4.246 -2.393,-5.778c-1.533,-1.533 -3.611,-2.394 -5.778,-2.394l-51.093,0c-2.167,0 -4.246,0.861 -5.778,2.394c-1.533,1.532 -2.393,3.61 -2.393,5.778l0,19.864c0,2.167 0.86,4.245 2.393,5.778c1.532,1.532 3.611,2.393 5.778,2.393l51.093,0c2.167,0 4.245,-0.861 5.778,-2.393c1.532,-1.533 2.393,-3.611 2.393,-5.778l0,-19.864Z"/></clipPath><g clip-path="url(#_clip19)"><rect x="420.449" y="324.149" width="74.664" height="17.584" style="fill:#dd9392;"/></g><text x="436.883px" y="334.366px" style="font-family:'Calibri', sans-serif;font-size:9.6px;">O<tspan x="443.643px 448.918px 453.903px 459.447px 464.605px 469.308px 476.068px " y="334.366px 334.366px 334.366px 334.366px 334.366px 334.366px 334.366px ">PERATOR</tspan></text></g><text x="130.762px" y="334.366px" style="font-family:'Calibri', sans-serif;font-size:9.6px;">O<tspan x="137.522px 142.797px 147.782px 153.326px 158.484px 163.187px 169.948px " y="334.366px 334.366px 334.366px 334.366px 334.366px 334.366px 334.366px ">PERATOR</tspan></text><text x="137.405px" y="402.003px" style="font-family:'Calibri', sans-serif;font-size:9.6px;">H<tspan x="143.767px 148.752px 153.045px 158.319px 163.304px " y="402.003px 402.003px 402.003px 402.003px 402.003px ">ELPER</tspan></text><text x="202.251px" y="334.366px" style="font-family:'Calibri', sans-serif;font-size:9.6px;">O<tspan x="209.011px 214.286px 219.271px 224.815px 229.973px 234.676px 241.436px " y="334.366px 334.366px 334.366px 334.366px 334.366px 334.366px 334.366px ">PERATOR</tspan></text><text x="208.894px" y="402.003px" style="font-family:'Calibri', sans-serif;font-size:9.6px;">H<tspan x="215.255px 220.241px 224.533px 229.808px 234.793px " y="402.003px 402.003px 402.003px 402.003px 402.003px ">ELPER</tspan></text><text x="283.434px" y="334.366px" style="font-family:'Calibri', sans-serif;font-size:9.6px;">O<tspan x="290.534px 296.073px 301.309px 307.131px 312.548px 317.488px 324.588px " y="334.366px 334.366px 334.366px 334.366px 334.366px 334.366px 334.366px ">PERATOR</tspan></text><text x="291.201px" y="402.003px" style="font-family:'Calibri', sans-serif;font-size:9.6px;">H<tspan x="297.562px 302.547px 306.84px 312.114px 317.1px " y="402.003px 402.003px 402.003px 402.003px 402.003px ">ELPER</tspan></text></g></g></svg>